# xmcd
#
# Track frame offsets:
#	182
#	11075
#	27490
#	43487
#	54912
#	67300
#	80257
#	91580
#	102305
#	111122
#	121897
#	132927
#	142735
#	155322
#	168242
#	180952
#	192210
#	202430
#	213370
#	227912
#	240190
#	252185
#	265502
#	278920
#
# Disc length: 3850 seconds
# Revision: 6
# Processed by: cddbd v1.5.2PL0 Copyright (c) Steve Scherf et al.
# Submitted via: dBpowerAMP V12.0
#
DISCID=470f0818
DTITLE=John Lee Hooker - My Story Is Blues Disc 3
DYEAR=1989
DGENRE=Pop Rock
TTITLE0=Let's Make It
TTITLE1=Process
TTITLE2=Thelma
TTITLE3=What Do You Say
TTITLE4=I Got A Letter This Morning
TTITLE5=I Lost A Good Girl
TTITLE6=A New Leaf
TTITLE7=Keep Your Hands To Yourself
TTITLE8=You Know I Love You
TTITLE9=Old Time Shimmy
TTITLE10=Send Me Your Pillow
TTITLE11=Big Soul
TTITLE12=Frisco Blues
TTITLE13=She Shot Me Down
TTITLE14=Take A Look At Yourself
TTITLE15=Good Rocking Mama
TTITLE16=I Love Her
TTITLE17=I Want To Shout
TTITLE18=Poor Me
TTITLE19=I Want To Hug You
TTITLE20=Love Is A Burning Thing
TTITLE21=Birmingham Blues
TTITLE22=Don't Look Back
TTITLE23=I'm Leaving Baby
EXTD=
EXTT0=
EXTT1=
EXTT2=
EXTT3=
EXTT4=
EXTT5=
EXTT6=
EXTT7=
EXTT8=
EXTT9=
EXTT10=
EXTT11=
EXTT12=
EXTT13=
EXTT14=
EXTT15=
EXTT16=
EXTT17=
EXTT18=
EXTT19=
EXTT20=
EXTT21=
EXTT22=
EXTT23=
PLAYORDER=
